<svg width="152" height="40" viewBox="0 0 152 40" xmlns="http://www.w3.org/2000/svg"><title>CIBO</title><path d="M20.315 17.615a22.99 22.99 0 0 0-1.112 5.36 16.984 16.984 0 0 1 3.538 2.212 22.05 22.05 0 0 1 1.33-4.98 18.147 18.147 0 0 0-3.756-2.592z" fill="#A9CF38"/><path d="M35.256 12.691c-.502.47-.979.952-1.443 1.433 1.604 3.808 1.691 8.018.469 11.964a20.878 20.878 0 0 1-6.883 9.99c.629-.28 1.255-.6 1.877-.937a22.285 22.285 0 0 0 4.72-3.568l.037-.038c.65-.674 1.264-1.37 1.84-2.085a20.786 20.786 0 0 0 3.234-6.001c1.516-4.448 1.408-9.268-.68-13.512a53.586 53.586 0 0 0-3.171 2.754z" fill="#2BA08A"/><path d="M6.24.882c-.424.4-.825.822-1.201 1.267a18.516 18.516 0 0 0-3.012 5.107 30.538 30.538 0 0 1 6.91.15c.47.063.958.134 1.436.216.19-.521.385-1.037.598-1.549a31.16 31.16 0 0 1 3.21-5.897c-1.87-.262-3.77-.23-5.63.094-.786.142-1.558.347-2.311.612z" fill="#37ABC7"/><path d="M2.022 7.27a24.866 24.866 0 0 0-1.466 5.494c-.077.53-.155 1.067-.197 1.604a48.043 48.043 0 0 1 8.234.094 37.449 37.449 0 0 1 1.769-6.817 34.48 34.48 0 0 0-1.434-.22 30.56 30.56 0 0 0-6.906-.155z" fill="#4ABFA7"/><path d="M.359 14.368a29.572 29.572 0 0 0 .145 6.71 51.871 51.871 0 0 1 7.685-.418 31.43 31.43 0 0 1 .404-6.196 47.982 47.982 0 0 0-8.234-.096z" fill="#4ABFA7"/><path d="M.507 21.108c.245 1.84.689 3.65 1.323 5.395a47.176 47.176 0 0 1 4.539-.718 34.975 34.975 0 0 1 2.594-.18 17.671 17.671 0 0 1-.448-1.903 22.534 22.534 0 0 1-.321-3.005 51.977 51.977 0 0 0-7.687.41z" fill="#4ABFA7"/><path d="M1.834 26.51c.333.903.73 1.78 1.19 2.625a16.5 16.5 0 0 0 1.407 2.16l.446-.107a36.44 36.44 0 0 1 6.334-.938 15.809 15.809 0 0 1-2.233-4.65 36.62 36.62 0 0 0-2.604.183c-1.46.157-2.98.404-4.54.727z" fill="#4ABFA7"/><path d="M11.22 30.264c-2.138.125-4.262.44-6.345.938-.146.033-.294.077-.439.113 2.456 3.18 5.963 5.294 9.878 6.19a20.61 20.61 0 0 0 12.302-1.086c.096-.03.209-.084.26-.106l-.274.047c-3.754.575-7.322-.023-10.291-1.602a14.676 14.676 0 0 1-5.089-4.492l-.002-.002z" fill="#4ABFA7"/><path d="M14.2.18a31.106 31.106 0 0 0-3.21 5.893 39.462 39.462 0 0 0-.607 1.553 36.85 36.85 0 0 1 6.753 1.844 48.676 48.676 0 0 1 4.037-7.234 31.137 31.137 0 0 0-1.26-.533A24.347 24.347 0 0 0 14.2.181z" fill="#37ABC7"/><path d="M21.185 2.243a48.606 48.606 0 0 0-4.032 7.232 31.237 31.237 0 0 1 5.534 2.723 52.336 52.336 0 0 1 4.222-6.51 29.217 29.217 0 0 0-5.724-3.445z" fill="#2E89A0"/><path d="M26.91 5.7a52.312 52.312 0 0 0-4.223 6.508 22.41 22.41 0 0 1 2.606 1.905c.44.376.856.767 1.245 1.172a42.21 42.21 0 0 1 1.49-2.221 48.674 48.674 0 0 1 2.867-3.552A25.804 25.804 0 0 0 26.909 5.7z" fill="#2E89A0"/><path d="M30.923 9.522a45.09 45.09 0 0 0-2.86 3.544 35.353 35.353 0 0 0-1.501 2.229 15.858 15.858 0 0 1 2.927 4.201 36.968 36.968 0 0 1 3.967-5.008l.333-.354a16.548 16.548 0 0 0-1.041-2.058 19.94 19.94 0 0 0-1.825-2.554z" fill="#038181"/><path d="M33.799 14.134c-.113.115-.235.234-.333.347a36.83 36.83 0 0 0-3.977 5.032 14.816 14.816 0 0 1 1.408 6.936c-.134 3.374-1.408 6.773-3.774 9.754l.215-.091a20.838 20.838 0 0 0 6.92-10.015c1.225-3.943 1.14-8.151-.46-11.963z" fill="#038181"/><path d="M19.2 22.999a17.057 17.057 0 0 0 .174 4.222c.956.385 1.872.862 2.735 1.424.193.127.38.258.563.39-.03-.273-.056-.55-.07-.831a16.146 16.146 0 0 1 .136-2.989A16.993 16.993 0 0 0 19.201 23z" fill="#DACC25"/><path d="M24.094 20.233a22.05 22.05 0 0 0-1.32 4.985 13.294 13.294 0 0 1 2.228 2.324c.263.355.506.725.727 1.108.063-.423.148-.852.246-1.288.27-1.154.637-2.284 1.098-3.376a14.48 14.48 0 0 0-2.979-3.753z" fill="#D3AB2A"/><path d="M10.38 7.643a37.454 37.454 0 0 0-1.768 6.817c2.13.203 4.24.573 6.312 1.107a41.09 41.09 0 0 1 2.205-6.083 36.945 36.945 0 0 0-6.749-1.841z" fill="#6EC38A"/><path d="M17.146 9.491c-.893 1.967-1.628 4-2.2 6.083a28.8 28.8 0 0 1 3.391 1.105c.672.268 1.33.57 1.97.905.23-.692.492-1.396.79-2.11a37.262 37.262 0 0 1 1.575-3.269 31.268 31.268 0 0 0-5.526-2.714z" fill="#81C241"/><path d="M22.687 12.224a37.063 37.063 0 0 0-1.577 3.258c-.298.704-.56 1.408-.79 2.112a18.152 18.152 0 0 1 3.753 2.597 30.14 30.14 0 0 1 2.47-4.884c-.39-.405-.805-.796-1.248-1.173a22.452 22.452 0 0 0-2.608-1.91z" fill="#A9CF38"/><path d="M26.55 15.307a30.104 30.104 0 0 0-2.456 4.895 14.5 14.5 0 0 1 2.991 3.754 28.24 28.24 0 0 1 2.386-4.432 15.804 15.804 0 0 0-2.92-4.217z" fill="#D3AB2A"/><path d="M29.49 19.54a28.131 28.131 0 0 0-2.382 4.425c.412.753.746 1.546.997 2.367.95 3.082.678 6.453-.938 9.702a4.873 4.873 0 0 1-.105.195l.04-.016c.051-.064.105-.136.15-.197 2.284-2.937 3.504-6.268 3.636-9.571a14.779 14.779 0 0 0-1.408-6.909l.01.005z" fill="#81C241"/><path d="M8.612 14.478a31.413 31.413 0 0 0-.4 6.193c1.247.026 2.491.115 3.728.266.704.091 1.394.204 2.062.34.03-.794.104-1.586.22-2.372.17-1.12.405-2.23.705-3.324a40.841 40.841 0 0 0-6.315-1.103z" fill="#6EC38A"/><path d="M8.21 20.688a22.69 22.69 0 0 0 .324 2.998c.115.643.265 1.28.45 1.907a29.89 29.89 0 0 1 5.42.296 18.173 18.173 0 0 1-.397-4.586 28.95 28.95 0 0 0-2.074-.345 36.813 36.813 0 0 0-3.723-.27z" fill="#6EC38A"/><path d="M8.985 25.605a15.76 15.76 0 0 0 2.247 4.645 27.704 27.704 0 0 1 4.98.154 14.439 14.439 0 0 1-1.806-4.501 29.776 29.776 0 0 0-5.421-.298z" fill="#6EC38A"/><path d="M26.28 36.304c-3.535-.253-6.526-1.7-8.665-4.042a12.635 12.635 0 0 1-1.391-1.839 27.662 27.662 0 0 0-4.98-.155 14.694 14.694 0 0 0 5.088 4.457c2.958 1.574 6.5 2.182 10.244 1.617.05 0 .16-.024.18-.03-.166 0-.32 0-.469-.017l-.007.01z" fill="#6EC38A"/><path d="M22.76 25.23c-.137.98-.182 1.971-.137 2.96.014.288.042.575.075.854 1.187.85 2.19 1.929 2.951 3.174a13.062 13.062 0 0 1 .068-3.545 11.55 11.55 0 0 0-.743-1.128 13.263 13.263 0 0 0-2.215-2.316zm-3.381 2.012c.171.996.455 1.968.847 2.9.21.499.456.982.734 1.447 1.1.429 2.136 1.008 3.078 1.72a10.777 10.777 0 0 1-1.363-4.249c-.19-.138-.378-.277-.58-.408a15.994 15.994 0 0 0-2.716-1.41z" fill="#DACC25"/><path d="M27.085 23.986a20.793 20.793 0 0 0-1.098 3.355c-.103.443-.185.88-.249 1.311a10.556 10.556 0 0 1 1.246 7.195c-.028.152-.059.288-.087.443a.774.774 0 0 1 .097-.042l.044-.021c.039-.063.074-.128.106-.195 1.623-3.244 1.876-6.61.938-9.693a12.74 12.74 0 0 0-.99-2.346l-.007-.007z" fill="#D3AB2A"/><path d="M14.945 15.595a28.81 28.81 0 0 0-.703 3.315 21.706 21.706 0 0 0-.216 2.378c1.78.355 3.513.92 5.16 1.685a23.106 23.106 0 0 1 1.115-5.363 21.647 21.647 0 0 0-1.98-.91 28.675 28.675 0 0 0-3.376-1.105z" fill="#81C241"/><path d="M14.023 21.303c-.06 1.539.074 3.08.402 4.586 1.687.245 3.34.688 4.926 1.318a17.038 17.038 0 0 1-.167-4.223 22.81 22.81 0 0 0-5.16-1.681z" fill="#A9CF38"/><path d="M14.43 25.907a14.422 14.422 0 0 0 1.813 4.502 20.51 20.51 0 0 1 3.45.73c.427.131.84.279 1.237.436a11.549 11.549 0 0 1-.725-1.422 13.315 13.315 0 0 1-.85-2.923 21.891 21.891 0 0 0-4.926-1.323z" fill="#A9CF38"/><path d="M16.257 30.43c.402.646.862 1.255 1.374 1.818 2.191 2.398 5.274 3.86 8.914 4.056.108.01.217.01.324 0l-.143-.094-.544-.204a10.413 10.413 0 0 1-5.243-4.396 16.15 16.15 0 0 0-1.257-.44 20.547 20.547 0 0 0-3.435-.73l.01-.01z" fill="#A9CF38"/><path d="M22.687 29.081a10.737 10.737 0 0 0 1.386 4.267 9.522 9.522 0 0 1 2.036 2.133l.106.164c.075.122.094.16.157.263.12.089.253.2.378.286l.124.089a4.154 4.154 0 0 0-.038-.47c-.082-.14-.164-.297-.234-.428a9.343 9.343 0 0 1-.95-3.088 10.875 10.875 0 0 0-2.965-3.216z" fill="#DACC25"/><path d="M25.724 28.708a12.951 12.951 0 0 0-.051 3.566 9.013 9.013 0 0 1 1.173 3.39c.026.18.037.338.044.502v.07c0-.023 0-.059.014-.084.02-.104.038-.22.054-.308.441-2.451 0-4.98-1.243-7.138l.01.002zm-4.748 2.907a10.415 10.415 0 0 0 5.342 4.408l.375.147c-.103-.072-.171-.126-.265-.192l-.073-.052a8.947 8.947 0 0 1-2.287-2.58 12.787 12.787 0 0 0-3.09-1.736l-.002.005z" fill="#DACC25"/><path d="M25.687 32.342a9.383 9.383 0 0 0 .952 3.05c.066.124.134.246.204.366 0-.064-.018-.115-.028-.179-.01-.063-.026-.155-.035-.223a9.017 9.017 0 0 0-1.093-3.019v.005zM24.118 33.4a8.961 8.961 0 0 0 2.226 2.489 9.221 9.221 0 0 0-2.226-2.489z" fill="#DACC25"/><path fill="#2E89A0" d="M82.895 1.497h3.671v3.336h-3.671z"/><path d="M73.657 8.8c-1.121-1.53-2.39-2.62-3.805-3.269s-3.18-.973-5.295-.973c-3.44 0-6.161.898-8.163 2.695-2.002 1.797-3.002 4.211-3 7.242 0 3.007.949 5.403 2.847 7.188 1.899 1.784 4.53 2.676 7.894 2.676 2.014 0 3.74-.331 5.18-.995 1.438-.663 2.783-1.757 4.032-3.284l3.134 1.877c-3.16 3.822-7.264 5.733-12.31 5.733-4.38 0-7.884-1.179-10.515-3.537-2.63-2.359-3.942-5.526-3.936-9.5 0-4.105 1.351-7.367 4.054-9.788 2.702-2.42 6.299-3.631 10.79-3.631 5.25 0 9.316 1.898 12.199 5.696L73.657 8.8zm39.923 17.089c-1.885 1.02-4.256 1.53-7.11 1.53H93.202V1.496h13.763c2.574 0 4.715.535 6.423 1.607 2.065 1.274 3.097 3.134 3.097 5.58 0 2.065-1.007 3.747-3.022 5.046 2.574 1.223 3.862 3.262 3.862 6.118 0 2.702-1.252 4.716-3.754 6.04h.01zm-2.409-20.13c-1.094-.626-2.521-.938-4.28-.938H96.873v7.457h9.979c1.76 0 3.193-.319 4.302-.957 1.109-.638 1.663-1.569 1.663-2.792-.001-1.22-.55-2.144-1.647-2.77zm.631 10.915c-1.262-.688-2.937-1.032-5.027-1.032h-9.901v8.445h10.054c1.96 0 3.541-.344 4.74-1.032 1.352-.738 2.028-1.795 2.028-3.172.006-1.451-.625-2.52-1.894-3.209zm36.152 7.456c-2.637 2.369-6.198 3.554-10.685 3.556-4.512 0-8.074-1.18-10.685-3.538-2.612-2.358-3.918-5.576-3.918-9.653 0-4.077 1.338-7.263 4.014-9.557 2.574-2.216 6.104-3.324 10.591-3.324 4.487 0 8.027 1.108 10.62 3.324 2.676 2.294 4.013 5.48 4.013 9.557s-1.316 7.288-3.95 9.634zm-2.58-16.727c-1.916-1.643-4.62-2.465-8.112-2.465s-6.184.828-8.075 2.484c-1.876 1.66-2.815 4.017-2.815 7.073s.956 5.465 2.867 7.227c1.911 1.76 4.587 2.64 8.027 2.64 3.493 0 6.194-.874 8.105-2.62 1.911-1.748 2.867-4.163 2.867-7.247-.002-3.084-.956-5.448-2.864-7.092zM82.895 8.501h3.671v18.914h-3.671z" fill="#fff"/><path d="M53.096 39.04h-.704v-6.3h-2.318v-.626h5.34v.627h-2.318zm6.502-.627h3.707v.626h-4.41v-6.925h4.292v.627h-3.589v2.376h3.355v.626h-3.355zm13.36-.497a2.782 2.782 0 0 1-1.002.915 3.228 3.228 0 0 1-1.588.387 3.767 3.767 0 0 1-1.447-.275 3.38 3.38 0 0 1-1.894-1.907 3.847 3.847 0 0 1-.27-1.457 3.79 3.79 0 0 1 .266-1.459 3.437 3.437 0 0 1 1.902-1.907 3.704 3.704 0 0 1 1.434-.274c.495 0 .984.103 1.438.302.208.092.405.208.586.345.17.128.319.281.441.455l-.586.43a1.766 1.766 0 0 0-.289-.336 1.97 1.97 0 0 0-.425-.293 2.679 2.679 0 0 0-.532-.207 2.37 2.37 0 0 0-.622-.077 2.88 2.88 0 0 0-1.208.234 2.716 2.716 0 0 0-.905.657c-.25.28-.443.606-.568.96a3.41 3.41 0 0 0-.195 1.15 3.31 3.31 0 0 0 .2 1.149c.127.353.322.679.572.959.253.28.561.505.906.66.377.163.786.243 1.198.234a2.71 2.71 0 0 0 1.136-.235c.368-.17.68-.44.9-.78l.552.37zm3.657-5.802h.704v3.003h3.779v-3.003h.704v6.925h-.704v-3.284h-3.78v3.284h-.703zm14.375 5.898h.019v-5.898h.704v6.925h-.88l-4.03-5.956h-.019v5.956h-.704v-6.925h.882zm11.854-2.435c.005.499-.088.994-.275 1.457a3.437 3.437 0 0 1-1.902 1.907 3.885 3.885 0 0 1-2.865 0 3.437 3.437 0 0 1-1.902-1.907 4.011 4.011 0 0 1 0-2.914 3.437 3.437 0 0 1 1.902-1.907 3.885 3.885 0 0 1 2.865 0 3.437 3.437 0 0 1 1.902 1.907c.187.463.28.958.275 1.457zm-.744 0a3.397 3.397 0 0 0-.195-1.152 2.88 2.88 0 0 0-.567-.962 2.716 2.716 0 0 0-.906-.659 3.05 3.05 0 0 0-2.395 0 2.712 2.712 0 0 0-.905.66 2.86 2.86 0 0 0-.568.961 3.493 3.493 0 0 0 0 2.304 2.745 2.745 0 0 0 1.473 1.612 3.05 3.05 0 0 0 2.395 0 2.75 2.75 0 0 0 1.473-1.612c.13-.369.197-.757.195-1.147v-.005zm5.358 2.836h3.228v.626h-3.932v-6.925h.704zm13.284-2.836c.006.499-.088.994-.274 1.457a3.437 3.437 0 0 1-1.903 1.907 3.885 3.885 0 0 1-2.864 0 3.437 3.437 0 0 1-1.902-1.907 4.011 4.011 0 0 1 0-2.914 3.437 3.437 0 0 1 1.902-1.907 3.885 3.885 0 0 1 2.864 0 3.437 3.437 0 0 1 1.903 1.907c.186.463.28.958.274 1.457zm-.743 0a3.397 3.397 0 0 0-.195-1.152 2.88 2.88 0 0 0-.568-.962 2.716 2.716 0 0 0-.905-.659 3.05 3.05 0 0 0-2.395 0 2.712 2.712 0 0 0-.906.66c-.25.28-.443.606-.567.961a3.493 3.493 0 0 0 0 2.304 2.745 2.745 0 0 0 1.473 1.612 3.05 3.05 0 0 0 2.395 0 2.75 2.75 0 0 0 1.473-1.612c.13-.369.195-.757.192-1.147l.003-.005zm9.892-2.207a2.524 2.524 0 0 0-.86-.592 2.925 2.925 0 0 0-1.146-.21c-.411-.01-.82.07-1.198.234a2.712 2.712 0 0 0-.906.659 2.94 2.94 0 0 0-.572.962 3.41 3.41 0 0 0 0 2.303c.127.354.321.679.572.957.254.278.562.501.906.655.378.164.787.244 1.198.235a4.34 4.34 0 0 0 1.077-.127c.28-.066.547-.175.793-.324v-2.111h-1.614v-.6h2.318v3.12c-.38.228-.792.4-1.222.508a5.492 5.492 0 0 1-1.36.167 3.767 3.767 0 0 1-1.448-.275 3.38 3.38 0 0 1-1.893-1.907 3.847 3.847 0 0 1-.27-1.456 3.79 3.79 0 0 1 .274-1.457 3.437 3.437 0 0 1 1.903-1.907 3.704 3.704 0 0 1 1.433-.275c.494-.01.985.074 1.447.249.396.155.755.39 1.056.69l-.488.501zm5.527 5.67h-.704v-6.926h.704v6.925zm4.987-.627h3.707v.626h-4.41v-6.925h4.292v.627h-3.589v2.376h3.355v.626h-3.355zm10.885-5.182a1.691 1.691 0 0 0-.577-.504 1.764 1.764 0 0 0-.852-.19c-.175 0-.35.026-.518.077-.17.05-.328.13-.47.235a1.234 1.234 0 0 0-.347.406 1.199 1.199 0 0 0-.13.577c-.008.19.036.379.126.546.085.144.2.269.335.366.145.104.302.188.47.249.178.065.365.13.56.194.24.079.483.163.727.254.236.087.458.207.66.356.194.151.354.341.469.559.132.265.196.56.185.856a1.9 1.9 0 0 1-.197.894 1.87 1.87 0 0 1-.514.621c-.216.166-.46.288-.722.362-.266.077-.54.117-.817.117-.21 0-.42-.021-.626-.063a2.845 2.845 0 0 1-.596-.19 2.42 2.42 0 0 1-.957-.775l.608-.45c.157.255.373.469.63.622.288.17.618.256.953.248.182 0 .363-.028.537-.082.18-.053.347-.139.495-.253.147-.115.27-.258.361-.42a1.307 1.307 0 0 0 0-1.173 1.262 1.262 0 0 0-.377-.401 2.304 2.304 0 0 0-.537-.27 22.978 22.978 0 0 0-.636-.216c-.222-.072-.447-.15-.676-.234a2.275 2.275 0 0 1-.596-.357 1.666 1.666 0 0 1-.424-.542 1.985 1.985 0 0 1 .04-1.642c.128-.235.307-.438.523-.596.212-.155.45-.271.704-.342.25-.07.51-.107.771-.108.415-.012.827.073 1.204.249.294.135.552.337.753.59l-.542.43z" opacity=".5" fill="#fff"/></svg>