<?xml version="1.0" encoding="utf-8"?>
<!-- Generator: Adobe Illustrator 19.2.1, SVG Export Plug-In . SVG Version: 6.00 Build 0)  -->
<svg version="1.1" id="Layer_1" xmlns="http://www.w3.org/2000/svg" xmlns:xlink="http://www.w3.org/1999/xlink" x="0px" y="0px"
	 viewBox="0 0 196.8 38" enable-background="new 0 0 196.8 38" xml:space="preserve">
<g>
	<path fill="#F26C36" d="M60.6,13.2l13.6,23.2c0.3,0.5,0.9,0.9,1.4,0.9h2.1c1.3,0,2.1-1.5,1.4-2.7L60.6,1.8c-0.7-1.2-2.2-1.2-2.9,0
		L39.2,34.6c-0.7,1.2,0.1,2.7,1.4,2.7h2.1c0.6,0,1.1-0.3,1.4-0.9l13.6-23.2C58.4,12,60,12,60.6,13.2z"/>
	<path fill="#F26C36" d="M60.6,32.5l2.1,3.9c0.3,0.5,0.9,0.9,1.4,0.9h2.1c1.3,0,2.1-1.5,1.4-2.7l-7.1-12.6c-0.7-1.2-2.2-1.2-2.9,0
		l-7.1,12.6c-0.7,1.2,0.1,2.7,1.4,2.7h2.1c0.6,0,1.1-0.3,1.4-0.9l2.1-3.9C58.4,31.4,60,31.4,60.6,32.5z"/>
</g>
<path fill="#58595B" d="M-0.3,1.8C-0.3,1.4,0.1,1,0.5,1h20.2C26.5,1,35,2.2,35,11.1c0,7.1-6.1,9.5-10.5,9.9c-0.4,0-0.6,0.5-0.4,0.8
	L34.5,36c0.4,0.6,0,1.4-0.7,1.4h-3.3c-0.3,0-0.5-0.1-0.7-0.3L18.6,21.6c-0.2-0.2-0.4-0.3-0.7-0.3h-13c-0.5,0-0.8,0.4-0.8,0.8v14.4
	c0,0.5-0.4,0.8-0.8,0.8H0.5c-0.5,0-0.8-0.4-0.8-0.8V1.8z M4.1,16.5c0,0.5,0.4,0.8,0.8,0.8h14.8c6.4,0,11.1-0.9,11.1-6.3
	c0-5.3-4.8-6.2-11.1-6.2H4.9c-0.5,0-0.8,0.4-0.8,0.8V16.5z"/>
<path fill="#58595B" d="M86.3,1h0.5c1.1,0,1.9,0.9,1.9,1.9v28.6c0,1.1,0.9,1.9,1.9,1.9h23.8c1.1,0,1.9,0.9,1.9,1.9v0
	c0,1.1-0.9,1.9-1.9,1.9H86.3c-1.1,0-1.9-0.9-1.9-1.9V2.9C84.4,1.9,85.2,1,86.3,1z"/>
<path fill="#58595B" d="M124.2,1h0.5c1.1,0,1.9,0.9,1.9,1.9v28.6c0,1.1,0.9,1.9,1.9,1.9h24.8c1.1,0,1.9,0.9,1.9,1.9v0
	c0,1.1-0.9,1.9-1.9,1.9h-29.2c-1.1,0-1.9-0.9-1.9-1.9V2.9C122.2,1.9,123.1,1,124.2,1z"/>
<path fill="#58595B" d="M162.4,22.1L146.9,4.2c-1.1-1.3-0.2-3.2,1.5-3.2h0.6c0.6,0,1.1,0.2,1.5,0.7L163.6,17c0.8,0.9,2.2,0.9,2.9,0
	l13.2-15.4c0.4-0.4,0.9-0.7,1.5-0.7h0.6c1.7,0,2.5,1.9,1.5,3.2l-15.5,17.9c-0.3,0.4-0.5,0.8-0.5,1.3v12.1c0,1.1-0.9,1.9-1.9,1.9
	h-0.5c-1.1,0-1.9-0.9-1.9-1.9V23.4C162.9,22.9,162.7,22.4,162.4,22.1z"/>
<g>
	<path fill="#58595B" d="M188.6,3.8c0.2,0.2,0.5,0.6,1.4,0.6c0.5,0,1.2-0.1,1.2-0.6c0-1-2.8-0.1-2.8-1.4c0-0.7,0.6-1,1.5-1
		c0.8,0,1.4,0.3,1.6,0.7l-0.3,0.2c-0.1-0.1-0.4-0.6-1.3-0.6c-0.6,0-1.1,0.2-1.1,0.6c0,1,2.8,0,2.8,1.5c0,0.5-0.5,1-1.6,1
		c-1,0-1.4-0.4-1.7-0.7L188.6,3.8z"/>
	<path fill="#58595B" d="M192.3,1.5h0.6l1.2,2.7l1.2-2.7h0.6v3.2h-0.4V1.9h0l-1.2,2.8h-0.3l-1.3-2.8h0v2.8h-0.4V1.5z"/>
</g>
</svg>
